 <svg width="500" height="500" viewBox="0 0 500 500" fill="none" xmlns="http://www.w3.org/2000/svg"><style>.text { font-family: monospace; fill: white; font-size: 22px }.title { font-size: 22px }.bold { font-weight: bold }.card { fill: url(#gradient) black }</style><rect class="card" x="1" y="1" width="498" height="498" rx="24" stroke="hsla(328,100%,50%,10%)" ></rect><line x1="0" y1="25" x2="500" y2="25" stroke="hsla(328,100%,50%,10%)" ></line><line x1="25" y1="0" x2="25" y2="500" stroke="hsla(328,100%,50%,10%)" ></line><line x1="0" y1="50" x2="500" y2="50" stroke="hsla(328,100%,50%,10%)" ></line><line x1="50" y1="0" x2="50" y2="500" stroke="hsla(328,100%,50%,10%)" ></line><line x1="0" y1="75" x2="500" y2="75" stroke="hsla(328,100%,50%,10%)" ></line><line x1="75" y1="0" x2="75" y2="500" stroke="hsla(328,100%,50%,10%)" ></line><line x1="0" y1="100" x2="500" y2="100" stroke="hsla(328,100%,50%,10%)" ></line><line x1="100" y1="0" x2="100" y2="500" stroke="hsla(328,100%,50%,10%)" ></line><line x1="0" y1="125" x2="500" y2="125" stroke="hsla(328,100%,50%,10%)" ></line><line x1="125" y1="0" x2="125" y2="500" stroke="hsla(328,100%,50%,10%)" ></line><line x1="0" y1="150" x2="500" y2="150" stroke="hsla(328,100%,50%,10%)" ></line><line x1="150" y1="0" x2="150" y2="500" stroke="hsla(328,100%,50%,10%)" ></line><line x1="0" y1="175" x2="500" y2="175" stroke="hsla(328,100%,50%,10%)" ></line><line x1="175" y1="0" x2="175" y2="500" stroke="hsla(328,100%,50%,10%)" ></line><line x1="0" y1="200" x2="500" y2="200" stroke="hsla(328,100%,50%,10%)" ></line><line x1="200" y1="0" x2="200" y2="500" stroke="hsla(328,100%,50%,10%)" ></line><line x1="0" y1="225" x2="500" y2="225" stroke="hsla(328,100%,50%,10%)" ></line><line x1="225" y1="0" x2="225" y2="500" stroke="hsla(328,100%,50%,10%)" ></line><line x1="0" y1="250" x2="500" y2="250" stroke="hsla(328,100%,50%,10%)" ></line><line x1="250" y1="0" x2="250" y2="500" stroke="hsla(328,100%,50%,10%)" ></line><line x1="0" y1="275" x2="500" y2="275" stroke="hsla(328,100%,50%,10%)" ></line><line x1="275" y1="0" x2="275" y2="500" stroke="hsla(328,100%,50%,10%)" ></line><line x1="0" y1="300" x2="500" y2="300" stroke="hsla(328,100%,50%,10%)" ></line><line x1="300" y1="0" x2="300" y2="500" stroke="hsla(328,100%,50%,10%)" ></line><line x1="0" y1="325" x2="500" y2="325" stroke="hsla(328,100%,50%,10%)" ></line><line x1="325" y1="0" x2="325" y2="500" stroke="hsla(328,100%,50%,10%)" ></line><line x1="0" y1="350" x2="500" y2="350" stroke="hsla(328,100%,50%,10%)" ></line><line x1="350" y1="0" x2="350" y2="500" stroke="hsla(328,100%,50%,10%)" ></line><line x1="0" y1="375" x2="500" y2="375" stroke="hsla(328,100%,50%,10%)" ></line><line x1="375" y1="0" x2="375" y2="500" stroke="hsla(328,100%,50%,10%)" ></line><line x1="0" y1="400" x2="500" y2="400" stroke="hsla(328,100%,50%,10%)" ></line><line x1="400" y1="0" x2="400" y2="500" stroke="hsla(328,100%,50%,10%)" ></line><line x1="0" y1="425" x2="500" y2="425" stroke="hsla(328,100%,50%,10%)" ></line><line x1="425" y1="0" x2="425" y2="500" stroke="hsla(328,100%,50%,10%)" ></line><line x1="0" y1="450" x2="500" y2="450" stroke="hsla(328,100%,50%,10%)" ></line><line x1="450" y1="0" x2="450" y2="500" stroke="hsla(328,100%,50%,10%)" ></line><line x1="0" y1="475" x2="500" y2="475" stroke="hsla(328,100%,50%,10%)" ></line><line x1="475" y1="0" x2="475" y2="500" stroke="hsla(328,100%,50%,10%)" ></line><text class="bold text title" x="50" y="74" ><![CDATA[MERC-GAUGE-]]>mERC20</text><text class="text" x="50" y="124" >Weight: 87.89%</text><text class="text" x="50" y="174" >878 MERC (4 * 188 + 125)</text><text class="text" x="50" y="224" >Burn Ratio: 6.0</text><text class="text" x="50" y="274" >0.0 mERC20 staked</text><defs><radialGradient id="gradient" cx="0" cy="0" r="1" gradientUnits="userSpaceOnUse" gradientTransform="translate(500 0) rotate(135) scale(600)"><stop stop-color="hsl(328,100%,50%)"/><stop offset="1"/></radialGradient></defs></svg>